<svg id="Capa_1" enable-background="new 0 0 512 512" height="100px" viewBox="0 0 512 512" width="100px" xmlns="http://www.w3.org/2000/svg"><g><path d="m373.123 266.473h115.341v-50.293c0-6.098 1.817-12.057 5.219-17.118l16.553-24.624c4.588-6.825-.303-16.007-8.527-16.007-4.496 0-171.686 0-179.043 0-9.856 0-17.846 7.99-17.846 17.846v30.186c33.245 11.82 50.739 29.983 68.303 60.01z" fill="#b1dbfc"/><path d="m344.788 171.462c0-5.529 3.007-10.378 7.456-13.03-16.316 0-27.772 0-29.579 0-9.856 0-17.846 7.99-17.846 17.846v30.186c16.59 5.898 29.258 13.377 39.969 23.12z" fill="#8bcaff"/><path d="m372.509 265.443c13.244 22.229 20.858 48.202 20.858 75.958 0 63.815-29.912 115.143-86.379 136.219 3.033 5.555 8.933 12.435 15.676 12.435h147.953c9.856 0 17.846-7.99 17.846-17.846v-206.766z" fill="#fee55a"/><g fill="#ffd301"><path d="m344.788 475.913v-19.904c-10.855 8.956-23.468 16.262-37.799 21.611 3.033 5.555 8.934 12.435 15.676 12.435h31.859c-5.677-2.2-9.736-7.713-9.736-14.142z"/><circle cx="420.132" cy="431.59" r="12.853"/><path d="m462.055 373.971c0 4.267 3.459 7.726 7.726 7.726h18.682v-15.453h-18.682c-4.267.001-7.726 3.46-7.726 7.727z"/><path d="m462.055 337.795c0 4.267 3.459 7.726 7.726 7.726h18.682v-15.453h-18.682c-4.267.001-7.726 3.46-7.726 7.727z"/><path d="m462.055 410.147c0 4.267 3.459 7.726 7.726 7.726h18.682v-15.453h-18.682c-4.267.001-7.726 3.46-7.726 7.727z"/><path d="m462.055 265.443c0 4.267 3.459 7.726 7.726 7.726h18.682v-15.453h-18.682c-4.267 0-7.726 3.46-7.726 7.727z"/><path d="m488.464 438.598h-18.682c-4.267 0-7.726 3.459-7.726 7.726s3.459 7.726 7.726 7.726h18.682z"/><path d="m462.055 301.619c0 4.267 3.459 7.726 7.726 7.726h18.682v-15.453h-18.682c-4.267.001-7.726 3.46-7.726 7.727z"/></g><path d="m462.055 229.267c0 4.267 3.459 7.726 7.726 7.726h18.682v-15.453h-18.682c-4.267 0-7.726 3.459-7.726 7.727z" fill="#60b8fe"/><g><path d="m259.504 323.926c66.622 40.82 123.379 15.113 143.489 3.283-5.684-60.005-47.033-109.616-102.622-127.406-10.6-3.392-17.825-13.198-17.825-24.327v-116.5h-55.065v116.5c0 11.145-7.252 20.941-17.866 24.342-20.484 6.563-39.033 17.449-54.576 31.581v44.851c0 9.333 2.505 18.477 7.222 26.497 25.928-4.3 59.71-1.817 97.243 21.179z" fill="#dfebfa"/></g><g><path d="m241.521 218.792c10.6-3.392 17.825-13.198 17.825-24.327v-135.489h-31.865v116.5c0 11.145-7.252 20.941-17.866 24.342-20.484 6.563-39.033 17.449-54.576 31.581v44.851c0 4.252.526 8.463 1.538 12.548 18.164-32.99 48.492-58.34 84.944-70.006z" fill="#b1dbfc"/></g><path d="m403.669 341.401c0-5.187-.266-10.313-.785-15.363-18.157 11.148-74.461 38.056-143.381-4.172-38.042-23.309-72.237-25.548-98.299-21.006.715 1.338 1.481 2.652 2.314 3.93l85.812 131.652c12.811 19.655 2.681 44.725-17.628 51.716 8.267 1.345 16.741 2 25.364 1.883 81.155-1.098 146.603-67.226 146.603-148.64z" fill="#ff8188"/><g><g><path d="m289.92 439.32c-4.139 0-7.726-3.357-7.726-7.726 0-4.887 4.452-8.518 9.23-7.582 3.777.788 6.222 4.039 6.222 7.582.001 4.231-3.481 7.726-7.726 7.726z" fill="#ff656f"/></g></g><circle cx="264.008" cy="374.887" fill="#ff656f" r="19.441"/><circle cx="319.841" cy="401.495" fill="#ff656f" r="12.853"/><g fill="#b1dbfc"><path d="m255.323 132.204c0 4.267 3.459 7.726 7.726 7.726h19.497v-15.453h-19.497c-4.267 0-7.726 3.46-7.726 7.727z"/><path d="m263.049 176.107h19.523c-.005-.211-.026-.418-.026-.63v-14.823h-19.497c-4.267 0-7.726 3.459-7.726 7.726s3.459 7.727 7.726 7.727z"/><path d="m255.323 96.028c0 4.267 3.459 7.726 7.726 7.726h19.497v-15.453h-19.497c-4.267 0-7.726 3.46-7.726 7.727z"/></g><path d="m294.831 21.945h-79.634c-5.516 0-9.987 4.471-9.987 9.987v22.208c0 5.516 4.471 9.987 9.987 9.987h79.634c5.516 0 9.987-4.471 9.987-9.987v-22.208c.001-5.516-4.471-9.987-9.987-9.987z" fill="#b1dbfc"/><g><path d="m128.537 368.144c33.916 20.781 65.258 10.537 79.58 3.488l-43.568-66.842c-5.534-8.49-8.48-18.406-8.48-28.54v-109.152h-56.095v109.154c0 10.134-2.946 20.05-8.48 28.54l-35.491 54.45c15.866-5.449 44.207-8.455 72.534 8.902z" fill="#dfebfa"/></g><path d="m100.264 356.831 22.48-34.49c5.534-8.49 8.48-18.406 8.48-28.54v-126.703h-31.25v109.154c0 10.134-2.946 20.05-8.48 28.54l-35.491 54.45c10.497-3.605 26.458-6.135 44.261-2.411z" fill="#b1dbfc"/><path d="m207.346 370.448c-13.018 6.944-42.934 17.617-78.808-4.364-29.74-18.222-56.414-14.003-71.732-8.072l-51.122 78.43c-15.035 23.067 1.517 53.613 29.051 53.613h186.575c27.534 0 44.086-30.546 29.051-53.613z" fill="#23a8fe"/><path d="m36.933 453.993 43.016-65.994 21.585-33.115c-18.454-4.181-34.249-.93-44.728 3.128l-51.122 78.43c-15.035 23.067 1.517 53.613 29.051 53.613h1.113c-6.023-10.609-6.58-24.303 1.085-36.062z" fill="#0193fa"/><g fill="#b1dbfc"><path d="m129.66 240.81c0 4.267 3.459 7.726 7.726 7.726h18.683v-15.453h-18.683c-4.266 0-7.726 3.46-7.726 7.727z"/><path d="m137.387 284.713h19.381c-.457-2.786-.698-5.615-.698-8.463v-6.99h-18.683c-4.267 0-7.726 3.459-7.726 7.726s3.459 7.727 7.726 7.727z"/><path d="m129.66 204.634c0 4.267 3.459 7.726 7.726 7.726h18.683v-15.453h-18.683c-4.266 0-7.726 3.46-7.726 7.727z"/></g><path d="m168.354 128.006h-80.664c-5.516 0-9.987 4.471-9.987 9.987v22.208c0 5.516 4.471 9.987 9.987 9.987h80.664c5.516 0 9.987-4.471 9.987-9.987v-22.208c.001-5.515-4.471-9.987-9.987-9.987z" fill="#b1dbfc"/><g><path d="m81.989 444.183c-4.216 0-7.716-3.419-7.716-7.726 0-4.935 4.545-8.512 9.23-7.572 3.723.776 6.222 3.981 6.222 7.572 0 4.155-3.364 7.726-7.736 7.726z" fill="#60b8fe"/></g><circle cx="131.73" cy="420.267" fill="#60b8fe" r="19.441"/><path d="m243.327 54.14v-22.208c0-5.516 4.471-9.987 9.987-9.987h-38.117c-5.516 0-9.987 4.471-9.987 9.987v22.208c0 5.516 4.471 9.987 9.987 9.987h38.117c-5.516 0-9.987-4.471-9.987-9.987z" fill="#8bcaff"/><path d="m115.82 160.201v-22.207c0-5.516 4.471-9.987 9.987-9.987h-38.117c-5.516 0-9.987 4.471-9.987 9.987v22.207c0 5.516 4.471 9.987 9.987 9.987h38.117c-5.516 0-9.987-4.471-9.987-9.987z" fill="#8bcaff"/></g></svg>